<svg data-logo="logo" xmlns="http://www.w3.org/2000/svg" viewBox="0 0 293 47">
    <g id="logogram" transform="translate(0, 3) rotate(0) "><path d="M45.8693 4.61295C46.667 3.72652 47.5535 2.99522 48.4621 2.41904C50.0576 1.42181 51.7418 0.889954 53.4704 0.889954V15.3609C52.2072 10.9731 49.4814 7.20574 45.8693 4.61295ZM67.3873 40.89H16.1296C7.7086 40.89 0.905273 34.0645 0.905273 25.6656C0.905273 17.6213 7.15458 11.0174 15.0659 10.4634V0.889954C16.8388 0.889954 18.5895 1.39965 20.2294 2.41904C21.138 2.97306 22.0244 3.70436 22.8222 4.54646C26.0798 2.26391 30.0244 0.934275 34.3014 0.934275C34.3014 10.1753 30.9773 20.9232 20.1629 20.9454H34.1906C33.7917 19.1503 32.1518 17.8207 30.2017 17.7985H38.3568C36.4067 17.7985 34.7668 19.1503 34.3679 20.9675H47.4427C50.0576 20.9675 52.6504 21.4772 55.0881 22.4966C57.5036 23.4938 59.7197 24.9786 61.559 26.8179C63.4205 28.6794 64.8831 30.8733 65.8803 33.2888C66.8776 35.6822 67.3873 38.275 67.3873 40.89ZM23.6864 10.7293C24.0188 11.5936 24.9053 12.5686 26.1463 13.2778C27.3873 13.9869 28.6726 14.275 29.5812 14.142C29.2488 13.2778 28.3623 12.3027 27.1213 11.5936C25.8803 10.8844 24.595 10.5963 23.6864 10.7293ZM42.3457 13.2778C41.1047 13.9869 39.8194 14.275 38.9108 14.142C39.2432 13.2778 40.1297 12.3027 41.3706 11.5936C42.6116 10.8844 43.897 10.5963 44.8055 10.7293C44.4953 11.5936 43.5867 12.5686 42.3457 13.2778Z" fill="#283841"/></g>
    <g id="logotype" transform="translate(74, 1)"><path fill="#000000" d="M19.48 35.24L19.48 35.24Q16.78 35.24 14.52 34.32Q12.27 33.39 10.62 31.69Q8.97 29.99 8.08 27.72Q7.19 25.45 7.19 22.71L7.19 22.71Q7.19 19.91 8.10 17.62Q9.01 15.33 10.67 13.67Q12.34 12.00 14.59 11.09Q16.85 10.18 19.48 10.18L19.48 10.18Q22.28 10.18 24.55 11.16Q26.83 12.14 28.44 13.95Q30.05 15.75 30.82 18.23L30.82 18.23L25.08 20.02Q24.34 17.64 22.89 16.61Q21.44 15.57 19.44 15.57L19.44 15.57Q17.59 15.57 16.19 16.45Q14.79 17.32 14.00 18.93Q13.21 20.54 13.21 22.71L13.21 22.71Q13.21 24.88 13.98 26.49Q14.75 28.11 16.15 29.00Q17.55 29.89 19.41 29.89L19.41 29.89Q21.54 29.89 23.01 28.77Q24.48 27.65 25.25 25.41L25.25 25.41L31.06 26.77Q30.36 29.40 28.70 31.31Q27.04 33.22 24.67 34.23Q22.31 35.24 19.48 35.24ZM40.51 35.24L40.51 35.24Q37.96 35.24 36.05 33.91Q34.14 32.59 33.11 30.33Q32.08 28.07 32.08 25.23L32.08 25.23Q32.08 22.43 33.11 20.16Q34.14 17.88 36.05 16.55Q37.96 15.22 40.51 15.22L40.51 15.22Q42.75 15.22 44.41 16.43Q46.08 17.64 46.74 19.81L46.74 19.81L46.74 15.47L52.66 15.47L52.66 35L49.75 35Q48.35 35 47.55 34.21Q46.74 33.42 46.74 32.02L46.74 32.02L46.74 30.70Q46.08 32.83 44.41 34.04Q42.75 35.24 40.51 35.24ZM42.44 30.06L42.44 30.06Q43.59 30.06 44.57 29.50Q45.55 28.95 46.15 27.86Q46.74 26.77 46.74 25.23L46.74 25.23Q46.74 23.73 46.15 22.64Q45.55 21.56 44.57 20.96Q43.59 20.37 42.44 20.37L42.44 20.37Q41.25 20.37 40.27 20.96Q39.29 21.56 38.71 22.64Q38.13 23.73 38.13 25.23L38.13 25.23Q38.13 26.77 38.71 27.86Q39.29 28.95 40.28 29.50Q41.28 30.06 42.44 30.06ZM64.14 35.24L64.14 35.24Q60.92 35.24 59.20 33.48Q57.49 31.71 57.49 28.35L57.49 28.35L57.49 20.27L54.37 20.27L54.37 15.47L67.29 15.47L67.29 20.27L63.40 20.27L63.40 28.42Q63.40 29.26 63.94 29.73Q64.49 30.20 65.26 30.20L65.26 30.20Q65.61 30.20 65.90 30.12Q66.20 30.03 66.48 29.86L66.48 29.86L67.95 34.20Q67.11 34.65 66.18 34.95Q65.26 35.24 64.14 35.24ZM61.20 15.47L55.91 17.04L55.91 15.47Q56.68 15.47 57.17 14.98Q57.66 14.49 57.66 13.72L57.66 13.72L57.66 10.71L63.40 10.71L63.40 12.81Q63.40 13.30 63.16 13.88Q62.91 14.45 62.40 14.89Q61.90 15.33 61.20 15.47L61.20 15.47ZM77.30 35.24L77.30 35.24Q74.74 35.24 72.83 33.91Q70.93 32.59 69.89 30.33Q68.86 28.07 68.86 25.23L68.86 25.23Q68.86 22.43 69.89 20.16Q70.93 17.88 72.83 16.55Q74.74 15.22 77.30 15.22L77.30 15.22Q79.54 15.22 81.20 16.43Q82.86 17.64 83.53 19.81L83.53 19.81L83.53 15.47L89.44 15.47L89.44 35L86.54 35Q85.14 35 84.33 34.21Q83.53 33.42 83.53 32.02L83.53 32.02L83.53 30.70Q82.86 32.83 81.20 34.04Q79.54 35.24 77.30 35.24ZM79.22 30.06L79.22 30.06Q80.38 30.06 81.36 29.50Q82.34 28.95 82.93 27.86Q83.53 26.77 83.53 25.23L83.53 25.23Q83.53 23.73 82.93 22.64Q82.34 21.56 81.36 20.96Q80.38 20.37 79.22 20.37L79.22 20.37Q78.03 20.37 77.05 20.96Q76.07 21.56 75.49 22.64Q74.92 23.73 74.92 25.23L74.92 25.23Q74.92 26.77 75.49 27.86Q76.07 28.95 77.07 29.50Q78.07 30.06 79.22 30.06ZM92.59 28.95L92.59 28.95L92.59 9.10L98.51 9.10L98.51 28.66Q98.51 29.43 98.98 29.82Q99.45 30.20 100.08 30.20L100.08 30.20Q100.50 30.20 100.89 30.06L100.89 30.06L101.83 34.62Q100.43 35.24 98.68 35.24L98.68 35.24Q97.21 35.24 95.81 34.65Q94.41 34.05 93.50 32.67Q92.59 31.29 92.59 28.95ZM116.11 34.34L116.11 34.34L116.11 15.47L121.99 15.47L121.99 34.34Q121.99 36.33 121.40 38.15Q120.80 39.97 119.56 41.41Q118.32 42.84 116.39 43.68Q114.47 44.52 111.77 44.52L111.77 44.52Q109.43 44.52 107.45 43.77Q105.47 43.02 104.05 41.53Q102.64 40.04 101.94 37.94L101.94 37.94L107.08 36.19Q107.64 37.59 108.74 38.52Q109.85 39.45 111.53 39.45L111.53 39.45Q113.77 39.45 114.94 38.06Q116.11 36.68 116.11 34.34ZM116.11 25.23L116.81 25.93Q116.78 28.66 116.20 30.41Q115.62 32.16 114.69 33.13Q113.77 34.09 112.65 34.48Q111.53 34.86 110.37 34.86L110.37 34.86Q108.13 34.86 106.40 33.83Q104.67 32.80 103.70 30.89Q102.74 28.98 102.74 26.39L102.74 26.39L102.74 15.47L108.59 15.47L108.59 25.59Q108.59 27.61 109.60 28.73Q110.62 29.86 112.33 29.86L112.33 29.86Q113.52 29.86 114.36 29.26Q115.20 28.66 115.66 27.63Q116.11 26.60 116.11 25.23L116.11 25.23ZM132.46 35.24L132.46 35.24Q130.32 35.24 128.55 34.58Q126.79 33.91 125.60 32.71Q124.41 31.50 123.88 29.93L123.88 29.93L129.34 28.70Q129.59 29.71 130.41 30.29Q131.23 30.87 132.42 30.87L132.42 30.87Q133.58 30.87 134.21 30.40Q134.84 29.93 134.84 29.26L134.84 29.26Q134.84 28.45 134.07 28.05Q133.30 27.65 132.05 27.37Q130.81 27.09 129.45 26.77Q128.08 26.46 126.86 25.85Q125.63 25.23 124.86 24.15Q124.09 23.06 124.09 21.31L124.09 21.31Q124.09 19.63 125.02 18.27Q125.95 16.90 127.71 16.06Q129.48 15.22 132.04 15.22L132.04 15.22Q134.17 15.22 135.80 15.89Q137.43 16.55 138.49 17.73Q139.56 18.90 140.02 20.51L140.02 20.51L134.80 21.88Q134.59 20.82 133.86 20.23Q133.12 19.63 131.90 19.63L131.90 19.63Q130.78 19.63 130.22 20.05Q129.66 20.47 129.66 21.17L129.66 21.17Q129.66 21.95 130.43 22.38Q131.20 22.82 132.42 23.10Q133.65 23.38 135.01 23.75Q136.38 24.11 137.60 24.74Q138.83 25.38 139.60 26.49Q140.37 27.61 140.37 29.40L140.37 29.40Q140.37 31.08 139.40 32.41Q138.44 33.74 136.66 34.49Q134.87 35.24 132.46 35.24ZM150.83 35.24L150.83 35.24Q147.61 35.24 145.90 33.48Q144.18 31.71 144.18 28.35L144.18 28.35L144.18 20.27L141.07 20.27L141.07 15.47L153.98 15.47L153.98 20.27L150.10 20.27L150.10 28.42Q150.10 29.26 150.64 29.73Q151.18 30.20 151.95 30.20L151.95 30.20Q152.30 30.20 152.60 30.12Q152.90 30.03 153.18 29.86L153.18 29.86L154.65 34.20Q153.81 34.65 152.88 34.95Q151.95 35.24 150.83 35.24ZM147.89 15.47L142.61 17.04L142.61 15.47Q143.38 15.47 143.87 14.98Q144.36 14.49 144.36 13.72L144.36 13.72L144.36 10.71L150.10 10.71L150.10 12.81Q150.10 13.30 149.85 13.88Q149.61 14.45 149.10 14.89Q148.59 15.33 147.89 15.47L147.89 15.47ZM173.62 29.05L179.74 10.43L186.01 10.43L177.29 35L169.91 35L161.16 10.43L167.49 10.43L173.62 29.05ZM194.97 35.24L194.97 35.24Q192.83 35.24 190.89 34.58Q188.95 33.91 187.46 32.64Q185.97 31.36 185.11 29.54Q184.26 27.72 184.26 25.38L184.26 25.38Q184.26 23.13 185.08 21.28Q185.90 19.42 187.32 18.06Q188.74 16.69 190.61 15.96Q192.48 15.22 194.58 15.22L194.58 15.22Q196.30 15.22 197.85 15.68Q199.41 16.13 200.65 17.01Q201.90 17.88 202.61 19.07Q203.33 20.27 203.33 21.73L203.33 21.73Q203.33 23.59 202.28 24.81Q201.23 26.04 199.53 26.74Q197.84 27.44 195.82 27.74Q193.81 28.04 191.85 28L191.85 28Q191.61 28 191.27 27.98Q190.94 27.96 190.66 27.95Q190.38 27.93 190.24 27.93L190.24 27.93Q190.45 28.73 191.13 29.38Q191.82 30.03 192.87 30.41Q193.92 30.80 195.04 30.80L195.04 30.80Q196.16 30.80 197.19 30.41Q198.22 30.03 199.06 29.43Q199.90 28.84 200.50 28.11L200.50 28.11L204.28 31.08Q203.23 32.48 201.72 33.41Q200.22 34.34 198.48 34.79Q196.75 35.24 194.97 35.24ZM191.89 24.11L191.89 24.11Q192.83 24.11 193.85 24.01Q194.86 23.91 195.72 23.64Q196.58 23.38 197.12 22.91Q197.66 22.43 197.66 21.70L197.66 21.70Q197.66 21.10 197.24 20.65Q196.82 20.20 196.12 19.95Q195.42 19.70 194.62 19.70L194.62 19.70Q193.22 19.70 192.17 20.37Q191.12 21.03 190.56 22.03Q190.00 23.03 189.93 24.04L189.93 24.04Q190.24 24.08 190.78 24.10Q191.33 24.11 191.89 24.11ZM214.18 35.24L214.18 35.24Q210.96 35.24 209.25 33.48Q207.53 31.71 207.53 28.35L207.53 28.35L207.53 20.27L204.42 20.27L204.42 15.47L217.33 15.47L217.33 20.27L213.45 20.27L213.45 28.42Q213.45 29.26 213.99 29.73Q214.53 30.20 215.30 30.20L215.30 30.20Q215.65 30.20 215.95 30.12Q216.25 30.03 216.53 29.86L216.53 29.86L218.00 34.20Q217.16 34.65 216.23 34.95Q215.30 35.24 214.18 35.24ZM211.24 15.47L205.96 17.04L205.96 15.47Q206.73 15.47 207.22 14.98Q207.71 14.49 207.71 13.72L207.71 13.72L207.71 10.71L213.45 10.71L213.45 12.81Q213.45 13.30 213.20 13.88Q212.96 14.45 212.45 14.89Q211.94 15.33 211.24 15.47L211.24 15.47Z"/></g>
</svg>